<svg height="512pt" viewBox="0 -27 512 512" width="512pt" xmlns="http://www.w3.org/2000/svg"><path d="m421.378906 274.074219h-26.148437c-4.203125 0-7.613281 3.40625-7.613281 7.613281s3.410156 7.617188 7.613281 7.617188h5.460937v11.800781c0 4.207031 3.410156 7.613281 7.613282 7.613281 4.207031 0 7.617187-3.40625 7.617187-7.613281v-11.800781h5.457031c4.207032 0 7.613282-3.410157 7.613282-7.617188s-3.40625-7.613281-7.613282-7.613281zm0 0" fill="#394856"/><path d="m87.515625 74.71875v213.1875h203.441406v-213.1875c0-43.941406-37.734375-78.390625-81.488281-74.40625l-14.246094 1.300781c-3.984375.363281-7.988281.363281-11.96875 0l-14.246094-1.300781c-43.757812-3.984375-81.492187 30.464844-81.492187 74.40625zm0 0" fill="#fdbd37"/><path d="m209.46875.3125-14.246094 1.300781c-3.980468.363281-7.988281.363281-11.96875 0l-2.96875-.269531c34.226563 6.546875 60.609375 36.636719 60.609375 73.375v213.1875h50.0625v-213.1875c0-43.941406-37.730469-78.390625-81.488281-74.40625zm0 0" fill="#fa9a39"/><path d="m313.382812 272.859375c-23.753906-12.054687-48.824218-20.441406-74.410156-25.15625-9.902344-1.824219-17.082031-10.480469-17.082031-20.554687v-39.957032h-65.3125v39.957032c0 10.074218-7.175781 18.730468-17.082031 20.554687-25.582032 4.714844-50.652344 13.101563-74.40625 25.15625-16.953125 8.609375-27.636719 26.011719-27.636719 45.027344v109.929687h303.566406v-109.929687c0-19.015625-10.679687-36.417969-27.636719-45.027344zm0 0" fill="#fed6a6"/><path d="m313.382812 272.859375c-23.753906-12.054687-48.824218-20.441406-74.410156-25.15625-9.902344-1.824219-17.082031-10.480469-17.082031-20.554687v-39.957032h-50.289063v59.121094c0 10.074219 7.175782 18.730469 17.082032 20.554688 25.585937 4.714843 50.65625 13.101562 74.410156 25.15625 16.953125 8.609374 27.636719 26.011718 27.636719 45.027343v90.765625h50.289062v-109.929687c0-19.015625-10.679687-36.417969-27.636719-45.027344zm0 0" fill="#efc79c"/><path d="m117.625 94.933594h-11.875c-10.074219 0-18.234375 8.167968-18.234375 18.246094v8.628906c0 10.074218 8.160156 18.246094 18.234375 18.246094h11.875zm0 0" fill="#fed6a6"/><path d="m260.851562 94.933594h11.871094c10.078125 0 18.234375 8.167968 18.234375 18.246094v8.628906c0 10.074218-8.15625 18.246094-18.234375 18.246094h-11.871094zm0 0" fill="#fed6a6"/><path d="m189.238281 49.421875c-32.898437 32.894531-76.941406 36.222656-76.941406 36.222656l.25 64.527344c0 50.984375 53.519531 74.992187 76.691406 75.484375 23.167969-.492188 76.691407-24.5 76.691407-75.484375l.246093-64.527344s-44.042969-3.328125-76.9375-36.222656zm0 0" fill="#ffe3c2"/><path d="m215.851562 69.355469-.210937 80.816406c0 36.511719-27.453125 59.1875-51.546875 69.300781 9.546875 4.007813 18.566406 6.042969 25.140625 6.183594 23.171875-.492188 76.695313-24.5 76.695313-75.484375l.246093-64.527344s-24.328125-1.839843-50.324219-16.289062zm0 0" fill="#f7d6b5"/><path d="m196.0625 157.589844h-5.652344c-5.683594 0-10.3125-4.625-10.3125-10.3125v-17.144532c0-4.207031 3.410156-7.617187 7.617188-7.617187 4.203125 0 7.613281 3.410156 7.613281 7.617187v12.226563h.734375c4.203125 0 7.613281 3.410156 7.613281 7.617187 0 4.207032-3.410156 7.613282-7.613281 7.613282zm0 0" fill="#d08f61"/><path d="m189.238281 194.804688c-13.539062 0-25.832031-6.128907-32.078125-16-2.25-3.550782-1.191406-8.257813 2.363282-10.507813 3.554687-2.246094 8.257812-1.191406 10.507812 2.363281 3.425781 5.417969 10.964844 8.914063 19.207031 8.914063 8.246094 0 15.785157-3.496094 19.210938-8.914063 2.25-3.550781 6.953125-4.609375 10.507812-2.363281 3.554688 2.25 4.613281 6.957031 2.363281 10.507813-6.246093 9.871093-18.539062 16-32.082031 16zm0 0" fill="#c35f58"/><path d="m228.496094 129.605469c-4.207032 0-7.613282-3.40625-7.613282-7.613281v-7.8125c0-4.207032 3.40625-7.617188 7.613282-7.617188 4.203125 0 7.613281 3.410156 7.613281 7.617188v7.8125c.003906 4.207031-3.40625 7.613281-7.613281 7.613281zm0 0" fill="#844535"/><path d="m149.976562 129.605469c-4.203124 0-7.613281-3.40625-7.613281-7.613281v-7.8125c0-4.207032 3.410157-7.617188 7.613281-7.617188 4.207032 0 7.617188 3.410156 7.617188 7.617188v7.8125c0 4.207031-3.410156 7.613281-7.617188 7.613281zm0 0" fill="#844535"/><path d="m313.382812 272.859375c-16.234374-8.238281-33.082031-14.757813-50.289062-19.570313-9.441406 15.164063-39.53125 26.25-75.199219 26.25-35.15625 0-64.898437-10.773437-74.785156-25.605468-16.417969 4.742187-32.5 11.046875-48.015625 18.925781-16.957031 8.609375-27.640625 26.011719-27.640625 45.027344v109.929687h303.566406v-109.929687c0-19.015625-10.679687-36.417969-27.636719-45.027344zm0 0" fill="#ff94a6"/><path d="m313.382812 272.859375c-16.234374-8.238281-33.082031-14.757813-50.289062-19.570313-6.070312 9.75-20.6875 17.804688-39.824219 22.320313 13.578125 4.390625 26.894531 9.855469 39.824219 16.414063 16.957031 8.609374 27.636719 26.011718 27.636719 45.027343v90.765625h50.289062v-109.929687c0-19.015625-10.679687-36.417969-27.636719-45.027344zm0 0" fill="#f4849c"/><path d="m131.800781 249.246094c-8.527343 1.828125-16.992187 4.054687-25.355469 6.703125v101.371093h25.355469zm0 0" fill="#4c7ba5"/><path d="m267.664062 254.605469c-8.371093-2.496094-16.832031-4.578125-25.355468-6.257813v113.304688h25.355468zm0 0" fill="#4c7ba5"/><path d="m294.261719 427.816406v-73.523437c0-3.757813-2.019531-7.222657-5.296875-9.054688-7.757813-4.332031-21.292969-13.394531-21.292969-23.871093v-1.875c0-4.667969-3.785156-8.453126-8.453125-8.453126h-144.320312c-4.667969 0-8.453126 3.785157-8.453126 8.453126v1.875c0 10.476562-13.539062 19.539062-21.292968 23.871093-3.28125 1.832031-5.296875 5.296875-5.296875 9.054688v73.523437zm0 0" fill="#375779"/><path d="m497.75 457.652344h-490.863281c-3.800781 0-6.886719-3.085938-6.886719-6.886719v-33.421875c0-3.804688 3.085938-6.886719 6.886719-6.886719h490.867187c3.800782 0 6.886719 3.082031 6.886719 6.886719v33.421875c0 3.800781-3.085937 6.886719-6.890625 6.886719zm0 0" fill="#8b5f46"/><path d="m497.75 410.457031h-43.398438v47.195313h43.398438c3.804688 0 6.890625-3.085938 6.890625-6.890625v-33.417969c0-3.804688-3.085937-6.886719-6.890625-6.886719zm0 0" fill="#844535"/><path d="m495.746094 326.769531h-14.207032c-4.207031 0-7.613281 3.410157-7.613281 7.617188v7.613281h21.820313c.566406 0 1.023437.460938 1.023437 1.023438v9.96875c0 .5625-.457031 1.023437-1.023437 1.023437h-21.820313v7.613281c0 4.207032 3.410157 7.617188 7.613281 7.617188h14.207032c8.964844 0 16.253906-7.292969 16.253906-16.253906v-9.972657c0-8.957031-7.289062-16.25-16.253906-16.25zm0 0" fill="#394856"/><path d="m319.839844 352.996094v-9.972656c0-.5625.460937-1.019532 1.023437-1.019532h21.824219v-7.617187c0-4.207031-3.410156-7.613281-7.617188-7.613281h-14.207031c-8.960937 0-16.253906 7.289062-16.253906 16.25v9.972656c0 8.960937 7.292969 16.253906 16.253906 16.253906h14.207031c4.207032 0 7.617188-3.410156 7.617188-7.617188v-7.613281h-21.824219c-.5625-.003906-1.023437-.460937-1.023437-1.023437zm0 0" fill="#394856"/><path d="m449.65625 301.105469h-82.703125c-18.378906 0-33.277344 14.902343-33.277344 33.28125v52.554687c0 14.109375 11.4375 25.546875 25.546875 25.546875h98.164063c14.109375 0 25.546875-11.4375 25.546875-25.546875v-52.554687c0-18.378907-14.898438-33.28125-33.277344-33.28125zm0 0" fill="#b2b9bf"/><path d="m449.65625 301.105469h-32.871094c8.761719 0 15.859375 7.101562 15.859375 15.863281v87.390625c0 4.488281-3.636719 8.128906-8.125 8.128906h32.867188c14.109375 0 25.546875-11.4375 25.546875-25.546875v-52.554687c0-18.378907-14.898438-33.28125-33.277344-33.28125zm0 0" fill="#a3acb2"/><path d="m449.65625 301.105469h-82.703125c-18.378906 0-33.277344 14.902343-33.277344 33.28125h149.257813c0-18.378907-14.898438-33.28125-33.277344-33.28125zm0 0" fill="#545464"/><path d="m466.320312 305.582031c-.425781-.246093-.851562-.480469-1.289062-.707031-4.597656-2.402344-9.828125-3.769531-15.375-3.769531h-32.871094c8.761719 0 15.863282 7.101562 15.863282 15.859375v17.421875h50.289062c0-2.875-.367188-5.660157-1.050781-8.320313-.273438-1.0625-.597657-2.105468-.972657-3.125-.929687-2.546875-2.167968-4.949218-3.660156-7.164062-2.308594-3.414063-5.234375-6.367188-8.613281-8.71875-.753906-.523438-1.527344-1.015625-2.320313-1.476563zm0 0" fill="#394856"/></svg>