<svg id="Layer_1" enable-background="new 0 0 64 64" height="512" viewBox="0 0 64 64" width="512" xmlns="http://www.w3.org/2000/svg"><path d="m49 35.4-10-4.4h-14l-10 4.4c-3.6 1.6-6 5.2-6 9.2v16.4h46v-16.5c0-3.9-2.4-7.5-6-9.1z" fill="#8fb8cc"/><path d="m43.1 32.8-4.1-1.8h-7v3l8 6z" fill="#066b93"/><path d="m20.9 32.8 4.1-1.8h7v3l-8 6z" fill="#066b93"/><path d="m36 37-2.6 2.6c-.8.8-2 .8-2.8 0l-2.6-2.6 4-3z" fill="#102e42"/><path d="m34 39h-4l-2 22h8z" fill="#1b4666"/><path d="m18 50h2v11h-2z" fill="#6b9baa"/><path d="m44 50h2v11h-2z" fill="#6b9baa"/><path d="m32 57.2-8.5-5.4 1-1.6 7.5 4.6 7.5-4.6 1 1.6z" fill="#3f3f3f"/><path d="m31 56h2v5h-2z" fill="#3f3f3f"/><path d="m42.5 19.1-1.5.3v6l2.9-1.4c.7-.3 1.1-1 1.1-1.8v-1.2c0-1.1-.9-2-2-2-.2 0-.3 0-.5.1z" fill="#eaa28c"/><path d="m21.5 19.1c-1.1-.3-2.2.4-2.4 1.5 0 .2-.1.3-.1.5v1.2c0 .8.4 1.5 1.1 1.8l2.9 1.4v-6z" fill="#eaa28c"/><path d="m41.3 15.6.7.4v7.8c0 3.8-2.1 7.3-5.5 8.9l-.9.4c-2.3 1.1-4.9 1.1-7.2 0l-.9-.4c-3.4-1.7-5.5-5.2-5.5-8.9v-7.8l.7-.4c5.7-3.5 12.9-3.5 18.6 0z" fill="#f7b49a"/><path d="m22 16 2.8 2.8c.8.8 1.8 1.2 2.8 1.2h7.9c.9 0 1.8-.3 2.5-.9l4-3.1v-3h-20z" fill="#066b93"/><path d="m44.3 6.1-6.3-2.1c-3.9-1.3-8.1-1.3-12 0l-6.3 2.1c-1.6.5-2.7 2.1-2.7 3.8v.1c0 2.5 1.5 4.7 3.8 5.6l1.2.4h20 .2c2.8-.6 4.8-3 4.8-5.9v-.2c0-1.7-1.1-3.3-2.7-3.8z" fill="#066b93"/><path d="m32.3 13h-.5c-3.2 0-6.3.9-9 2.6l-.8.4 2.8 2.8c.8.8 1.8 1.2 2.8 1.2h7.9c.9 0 1.8-.3 2.5-.9l4-3.1-.7-.4c-2.8-1.7-5.9-2.5-9-2.6z" fill="#215987"/><path d="m25.8 61c-2.8-3.4-2.2-8.5 1.2-11.2 3.4-2.8 8.5-2.2 11.2 1.2 2.4 2.9 2.4 7.1 0 10h2.4c2.8-4.8 1.2-10.9-3.6-13.7s-10.9-1.1-13.6 3.7c-1.8 3.1-1.8 6.9 0 10z" fill="#2b2b2b"/></svg>